<mxfile host="www.draw.io" modified="2024-03-28T13:29:08.663Z" agent="Mozilla/5.0 (Windows NT 10.0; Win64; x64) AppleWebKit/537.36 (KHTML, like Gecko) Chrome/123.0.0.0 Safari/537.36" etag="Lm-0wbGtkZSFjJ9o2gTW" version="24.2.0" type="device">
  <diagram name="Page-1" id="g7OGSFq-OzlU3W-Fymxp">
    <mxGraphModel dx="1513" dy="1922" grid="1" gridSize="10" guides="1" tooltips="1" connect="1" arrows="1" fold="1" page="1" pageScale="1" pageWidth="827" pageHeight="1169" math="0" shadow="0">
      <root>
        <mxCell id="0" />
        <mxCell id="1" parent="0" />
        <mxCell id="FzkT0GX0JR27hwqMHvXD-7" style="edgeStyle=orthogonalEdgeStyle;rounded=0;orthogonalLoop=1;jettySize=auto;html=1;exitX=0;exitY=0.5;exitDx=0;exitDy=0;entryX=0.5;entryY=0;entryDx=0;entryDy=0;" edge="1" parent="1" source="FzkT0GX0JR27hwqMHvXD-1" target="FzkT0GX0JR27hwqMHvXD-4">
          <mxGeometry relative="1" as="geometry" />
        </mxCell>
        <mxCell id="FzkT0GX0JR27hwqMHvXD-8" style="edgeStyle=orthogonalEdgeStyle;rounded=0;orthogonalLoop=1;jettySize=auto;html=1;exitX=0.5;exitY=1;exitDx=0;exitDy=0;" edge="1" parent="1" source="FzkT0GX0JR27hwqMHvXD-1" target="FzkT0GX0JR27hwqMHvXD-2">
          <mxGeometry relative="1" as="geometry" />
        </mxCell>
        <mxCell id="FzkT0GX0JR27hwqMHvXD-12" style="edgeStyle=orthogonalEdgeStyle;rounded=0;orthogonalLoop=1;jettySize=auto;html=1;exitX=1;exitY=0.5;exitDx=0;exitDy=0;entryX=0.5;entryY=0;entryDx=0;entryDy=0;" edge="1" parent="1" source="FzkT0GX0JR27hwqMHvXD-1" target="FzkT0GX0JR27hwqMHvXD-9">
          <mxGeometry relative="1" as="geometry" />
        </mxCell>
        <mxCell id="FzkT0GX0JR27hwqMHvXD-13" style="edgeStyle=orthogonalEdgeStyle;rounded=0;orthogonalLoop=1;jettySize=auto;html=1;exitX=1;exitY=0.5;exitDx=0;exitDy=0;entryX=0.5;entryY=0;entryDx=0;entryDy=0;" edge="1" parent="1" source="FzkT0GX0JR27hwqMHvXD-1" target="FzkT0GX0JR27hwqMHvXD-10">
          <mxGeometry relative="1" as="geometry" />
        </mxCell>
        <mxCell id="FzkT0GX0JR27hwqMHvXD-1" value="&lt;b&gt;&lt;font style=&quot;font-size: 16px;&quot;&gt;Input&lt;/font&gt;&lt;/b&gt;" style="rounded=0;whiteSpace=wrap;html=1;fillColor=#f5f5f5;fontColor=#333333;strokeColor=#666666;" vertex="1" parent="1">
          <mxGeometry x="-300" y="-40" width="80" height="30" as="geometry" />
        </mxCell>
        <mxCell id="FzkT0GX0JR27hwqMHvXD-17" value="" style="edgeStyle=orthogonalEdgeStyle;rounded=0;orthogonalLoop=1;jettySize=auto;html=1;" edge="1" parent="1" source="FzkT0GX0JR27hwqMHvXD-2" target="FzkT0GX0JR27hwqMHvXD-6">
          <mxGeometry relative="1" as="geometry" />
        </mxCell>
        <mxCell id="FzkT0GX0JR27hwqMHvXD-2" value="&lt;b&gt;&lt;font style=&quot;font-size: 16px;&quot;&gt;1 * 1 Conv,&lt;/font&gt;&lt;/b&gt;&lt;div&gt;&lt;b&gt;&lt;font style=&quot;font-size: 16px;&quot;&gt;64&lt;/font&gt;&lt;/b&gt;&lt;/div&gt;" style="rounded=0;whiteSpace=wrap;html=1;fillColor=#f8cecc;strokeColor=#b85450;" vertex="1" parent="1">
          <mxGeometry x="-310" y="20" width="100" height="40" as="geometry" />
        </mxCell>
        <mxCell id="FzkT0GX0JR27hwqMHvXD-3" value="&lt;span style=&quot;font-size: 16px;&quot;&gt;&lt;b&gt;3 * 3 Conv, 96&lt;/b&gt;&lt;/span&gt;" style="rounded=0;whiteSpace=wrap;html=1;fillColor=#f8cecc;strokeColor=#b85450;" vertex="1" parent="1">
          <mxGeometry x="-310" y="80" width="100" height="40" as="geometry" />
        </mxCell>
        <mxCell id="FzkT0GX0JR27hwqMHvXD-16" value="" style="edgeStyle=orthogonalEdgeStyle;rounded=0;orthogonalLoop=1;jettySize=auto;html=1;" edge="1" parent="1" source="FzkT0GX0JR27hwqMHvXD-4" target="FzkT0GX0JR27hwqMHvXD-5">
          <mxGeometry relative="1" as="geometry" />
        </mxCell>
        <mxCell id="FzkT0GX0JR27hwqMHvXD-4" value="&lt;span style=&quot;font-size: 16px;&quot;&gt;&lt;b&gt;1 * 1 Conv, 96&lt;/b&gt;&lt;/span&gt;" style="rounded=0;whiteSpace=wrap;html=1;fillColor=#f8cecc;strokeColor=#b85450;" vertex="1" parent="1">
          <mxGeometry x="-463" y="20" width="100" height="40" as="geometry" />
        </mxCell>
        <mxCell id="FzkT0GX0JR27hwqMHvXD-19" style="edgeStyle=orthogonalEdgeStyle;rounded=0;orthogonalLoop=1;jettySize=auto;html=1;exitX=0.5;exitY=1;exitDx=0;exitDy=0;entryX=0;entryY=0.5;entryDx=0;entryDy=0;" edge="1" parent="1" source="FzkT0GX0JR27hwqMHvXD-5" target="FzkT0GX0JR27hwqMHvXD-15">
          <mxGeometry relative="1" as="geometry" />
        </mxCell>
        <mxCell id="FzkT0GX0JR27hwqMHvXD-5" value="&lt;span style=&quot;font-size: 16px;&quot;&gt;&lt;b&gt;3 * 3 Conv, 96&lt;/b&gt;&lt;/span&gt;" style="rounded=0;whiteSpace=wrap;html=1;fillColor=#f8cecc;strokeColor=#b85450;" vertex="1" parent="1">
          <mxGeometry x="-463" y="80" width="100" height="40" as="geometry" />
        </mxCell>
        <mxCell id="FzkT0GX0JR27hwqMHvXD-20" style="edgeStyle=orthogonalEdgeStyle;rounded=0;orthogonalLoop=1;jettySize=auto;html=1;exitX=0.5;exitY=1;exitDx=0;exitDy=0;entryX=0.5;entryY=0;entryDx=0;entryDy=0;" edge="1" parent="1" source="FzkT0GX0JR27hwqMHvXD-6" target="FzkT0GX0JR27hwqMHvXD-15">
          <mxGeometry relative="1" as="geometry" />
        </mxCell>
        <mxCell id="FzkT0GX0JR27hwqMHvXD-6" value="&lt;span style=&quot;font-size: 16px;&quot;&gt;&lt;b&gt;3 * 3 Conv, 96&lt;/b&gt;&lt;/span&gt;" style="rounded=0;whiteSpace=wrap;html=1;fillColor=#f8cecc;strokeColor=#b85450;" vertex="1" parent="1">
          <mxGeometry x="-310" y="150" width="100" height="40" as="geometry" />
        </mxCell>
        <mxCell id="FzkT0GX0JR27hwqMHvXD-21" style="edgeStyle=orthogonalEdgeStyle;rounded=0;orthogonalLoop=1;jettySize=auto;html=1;exitX=0.5;exitY=1;exitDx=0;exitDy=0;entryX=1;entryY=0;entryDx=0;entryDy=0;" edge="1" parent="1" source="FzkT0GX0JR27hwqMHvXD-9" target="FzkT0GX0JR27hwqMHvXD-15">
          <mxGeometry relative="1" as="geometry" />
        </mxCell>
        <mxCell id="FzkT0GX0JR27hwqMHvXD-9" value="&lt;b&gt;&lt;font style=&quot;font-size: 16px;&quot;&gt;1 * 1 Conv,&lt;/font&gt;&lt;/b&gt;&lt;div&gt;&lt;span style=&quot;font-size: 16px;&quot;&gt;&lt;b&gt;96&lt;/b&gt;&lt;/span&gt;&lt;/div&gt;" style="rounded=0;whiteSpace=wrap;html=1;fillColor=#f8cecc;strokeColor=#b85450;" vertex="1" parent="1">
          <mxGeometry x="-170" y="20" width="100" height="40" as="geometry" />
        </mxCell>
        <mxCell id="FzkT0GX0JR27hwqMHvXD-18" value="" style="edgeStyle=orthogonalEdgeStyle;rounded=0;orthogonalLoop=1;jettySize=auto;html=1;" edge="1" parent="1" source="FzkT0GX0JR27hwqMHvXD-10" target="FzkT0GX0JR27hwqMHvXD-11">
          <mxGeometry relative="1" as="geometry" />
        </mxCell>
        <mxCell id="FzkT0GX0JR27hwqMHvXD-10" value="&lt;span style=&quot;font-size: 16px;&quot;&gt;&lt;b&gt;Average Pooling&lt;/b&gt;&lt;/span&gt;" style="rounded=0;whiteSpace=wrap;html=1;fillColor=#f8cecc;strokeColor=#b85450;" vertex="1" parent="1">
          <mxGeometry x="-30" y="20" width="100" height="40" as="geometry" />
        </mxCell>
        <mxCell id="FzkT0GX0JR27hwqMHvXD-22" style="edgeStyle=orthogonalEdgeStyle;rounded=0;orthogonalLoop=1;jettySize=auto;html=1;exitX=0.5;exitY=1;exitDx=0;exitDy=0;entryX=1;entryY=0.5;entryDx=0;entryDy=0;" edge="1" parent="1" source="FzkT0GX0JR27hwqMHvXD-11" target="FzkT0GX0JR27hwqMHvXD-15">
          <mxGeometry relative="1" as="geometry" />
        </mxCell>
        <mxCell id="FzkT0GX0JR27hwqMHvXD-11" value="&lt;b&gt;&lt;font style=&quot;font-size: 16px;&quot;&gt;1 * 1 Conv,&lt;/font&gt;&lt;/b&gt;&lt;div&gt;&lt;span style=&quot;font-size: 16px;&quot;&gt;&lt;b&gt;96&lt;/b&gt;&lt;/span&gt;&lt;/div&gt;" style="rounded=0;whiteSpace=wrap;html=1;fillColor=#f8cecc;strokeColor=#b85450;" vertex="1" parent="1">
          <mxGeometry x="-30" y="90" width="100" height="40" as="geometry" />
        </mxCell>
        <mxCell id="FzkT0GX0JR27hwqMHvXD-15" value="&lt;b&gt;&lt;font style=&quot;font-size: 16px;&quot;&gt;Concatenate&lt;/font&gt;&lt;/b&gt;" style="rounded=0;whiteSpace=wrap;html=1;fillColor=#f5f5f5;fontColor=#333333;strokeColor=#666666;" vertex="1" parent="1">
          <mxGeometry x="-290" y="230" width="120" height="40" as="geometry" />
        </mxCell>
      </root>
    </mxGraphModel>
  </diagram>
</mxfile>
